<svg width="64" height="64" viewBox="0 0 24 24" fill="none" xmlns="http://www.w3.org/2000/svg">
<path d="M12 15C13.6569 15 15 13.6569 15 12C15 10.3431 13.6569 9 12 9C10.3431 9 9 10.3431 9 12C9 13.6569 10.3431 15 12 15Z" fill="#34495E"/>
<path fill-rule="evenodd" clip-rule="evenodd" d="M20 12C20 11.5 19.95 11 19.85 10.55L21.75 9.15C21.9 9.05 21.95 8.85 21.85 8.7L20.05 5.6C19.95 5.45 19.75 5.4 19.55 5.45L17.35 6.35C16.9 6 16.4 5.7 15.9 5.5L15.55 3.2C15.5 3 15.35 2.85 15.15 2.85H11.55H8.85C8.65 2.85 8.5 3 8.45 3.2L8.1 5.5C7.6 5.7 7.1 6 6.65 6.35L4.45 5.45C4.25 5.4 4.05 5.45 3.95 5.6L2.15 8.7C2.05 8.85 2.1 9.05 2.25 9.15L4.15 10.55C4.05 11 4 11.5 4 12C4 12.5 4.05 13 4.15 13.45L2.25 14.85C2.1 14.95 2.05 15.15 2.15 15.3L3.95 18.4C4.05 18.55 4.25 18.6 4.45 18.55L6.65 17.65C7.1 18 7.6 18.3 8.1 18.5L8.45 20.8C8.5 21 8.65 21.15 8.85 21.15H15.15C15.35 21.15 15.5 21 15.55 20.8L15.9 18.5C16.4 18.3 16.9 18 17.35 17.65L19.55 18.55C19.75 18.6 19.95 18.55 20.05 18.4L21.85 15.3C21.95 15.15 21.9 14.95 21.75 14.85L19.85 13.45C19.95 13 20 12.5 20 12ZM12 16.5C9.51 16.5 7.5 14.49 7.5 12C7.5 9.51 9.51 7.5 12 7.5C14.49 7.5 16.5 9.51 16.5 12C16.5 14.49 14.49 16.5 12 16.5Z" fill="#34495E"/>
</svg>